<svg width="21" height="21" viewBox="0 0 21 21" fill="none" xmlns="http://www.w3.org/2000/svg">
<g filter="url(#filter0_dd_7589_16001)">
<path d="M10.5667 7.28385C10.2064 7.07884 9.84746 6.87236 9.48714 6.66735C8.91686 6.34226 8.34658 6.0157 7.7763 5.69061C7.64626 5.61593 7.51487 5.54125 7.38483 5.46657C7.40786 5.50903 7.42953 5.5515 7.45256 5.5925C7.45256 5.18394 7.45256 4.77538 7.45256 4.36829C7.45256 3.71664 7.45256 3.065 7.45256 2.41336C7.45256 2.26253 7.45256 2.1117 7.45256 1.96233C7.38483 2.0048 7.3171 2.04726 7.24937 2.08827C7.60969 2.29328 7.96865 2.49975 8.32897 2.70477C8.89925 3.03132 9.46953 3.35641 10.0398 3.68296C10.1698 3.75765 10.3012 3.83233 10.4313 3.90701C10.4083 3.86455 10.3866 3.82208 10.3636 3.78108C10.3636 4.18964 10.3636 4.59819 10.3636 5.00529C10.3636 5.65693 10.3636 6.30858 10.3636 6.95876C10.3636 7.10959 10.3636 7.25895 10.3636 7.40978C10.3636 7.59869 10.6345 7.59869 10.6345 7.40978C10.6345 7.00122 10.6345 6.59267 10.6345 6.18557C10.6345 5.53393 10.6345 4.88228 10.6345 4.2321C10.6345 4.08127 10.6345 3.93191 10.6345 3.78108C10.6345 3.73129 10.6087 3.67857 10.5667 3.65514C10.2064 3.45013 9.84746 3.24365 9.48714 3.03864C8.91686 2.71209 8.34658 2.387 7.7763 2.06044C7.64626 1.98576 7.51487 1.91108 7.38483 1.83639C7.29543 1.78514 7.18164 1.84811 7.18164 1.96233C7.18164 2.37089 7.18164 2.77945 7.18164 3.18654C7.18164 3.83819 7.18164 4.48983 7.18164 5.14148C7.18164 5.29231 7.18164 5.44314 7.18164 5.5925C7.18164 5.64229 7.20738 5.69501 7.24937 5.71844C7.60969 5.92345 7.96865 6.12993 8.32897 6.33494C8.89925 6.66003 9.46953 6.98658 10.0398 7.31167C10.1698 7.38635 10.3012 7.46104 10.4313 7.53572C10.5844 7.62358 10.7212 7.37171 10.5667 7.28385Z" fill="#667085"/>
<path d="M13.6143 5.46657C13.254 5.67158 12.895 5.87805 12.5347 6.08307C11.9644 6.40816 11.3928 6.73471 10.8225 7.0598C10.6924 7.13448 10.5611 7.20917 10.431 7.28385C10.4987 7.32631 10.5665 7.36878 10.6342 7.40978C10.6342 7.00122 10.6342 6.59267 10.6342 6.18557C10.6342 5.53393 10.6342 4.88228 10.6342 4.2321C10.6342 4.08127 10.6342 3.93191 10.6342 3.78108C10.6112 3.82354 10.5895 3.86601 10.5665 3.90701C10.9268 3.702 11.2858 3.49552 11.6461 3.29051C12.2164 2.96396 12.788 2.63887 13.3583 2.31231C13.4883 2.23763 13.6197 2.16295 13.7497 2.08827C13.682 2.0458 13.6143 2.00333 13.5466 1.96233C13.5466 2.37089 13.5466 2.77945 13.5466 3.18654C13.5466 3.83819 13.5466 4.48983 13.5466 5.14148C13.5466 5.29231 13.5466 5.44314 13.5466 5.5925C13.5466 5.78141 13.8175 5.78141 13.8175 5.5925C13.8175 5.18394 13.8175 4.77538 13.8175 4.36829C13.8175 3.71664 13.8175 3.065 13.8175 2.41336C13.8175 2.26253 13.8175 2.1117 13.8175 1.96233C13.8175 1.84811 13.7037 1.78514 13.6143 1.83639C13.254 2.04141 12.895 2.24788 12.5347 2.45289C11.9644 2.77945 11.3928 3.10454 10.8225 3.43109C10.6924 3.50578 10.5611 3.58046 10.431 3.65514C10.389 3.67857 10.3633 3.73129 10.3633 3.78108C10.3633 4.18964 10.3633 4.59819 10.3633 5.00529C10.3633 5.65693 10.3633 6.30858 10.3633 6.95876C10.3633 7.10959 10.3633 7.25895 10.3633 7.40978C10.3633 7.524 10.4771 7.58697 10.5665 7.53572C10.9268 7.33071 11.2858 7.12423 11.6461 6.91922C12.2164 6.59413 12.788 6.26758 13.3583 5.94249C13.4883 5.8678 13.6197 5.79312 13.7497 5.71844C13.9042 5.63058 13.7673 5.37724 13.6143 5.46657Z" fill="#667085"/>
<path d="M13.6144 1.8345C13.2541 2.03951 12.8952 2.24599 12.5348 2.451C11.9646 2.77756 11.3929 3.10265 10.8226 3.4292C10.6926 3.50388 10.5612 3.57857 10.4312 3.65325C10.4772 3.65325 10.5219 3.65325 10.568 3.65325C10.2077 3.44824 9.8487 3.24176 9.48838 3.03675C8.9181 2.7102 8.34782 2.38511 7.77754 2.05855C7.6475 1.98387 7.5161 1.90919 7.38606 1.8345C7.38606 1.91944 7.38606 2.00291 7.38606 2.08784C7.74638 1.88283 8.10535 1.67782 8.46567 1.47134C9.03595 1.14625 9.60623 0.819695 10.1765 0.494605C10.3065 0.419922 10.4379 0.345239 10.568 0.270556C10.5219 0.270556 10.4772 0.270556 10.4312 0.270556C10.7915 0.475568 11.1504 0.68058 11.5108 0.887056C12.081 1.21215 12.6527 1.5387 13.223 1.86379C13.353 1.93847 13.4844 2.01316 13.6144 2.08784C13.7689 2.1757 13.9057 1.92236 13.7512 1.8345C13.3882 1.62656 13.0238 1.42009 12.6608 1.21215C12.0905 0.885592 11.5189 0.560502 10.9486 0.233947C10.824 0.162193 10.6994 0.086046 10.572 0.018685C10.4989 -0.0193886 10.4474 0.00697003 10.3878 0.0421149C10.3228 0.0787241 10.2578 0.115333 10.1941 0.153407C9.64957 0.463853 9.10638 0.7743 8.56184 1.08475C8.13244 1.33076 7.69491 1.56506 7.27092 1.82132C7.26415 1.82572 7.25738 1.82865 7.25061 1.83304C7.16256 1.88283 7.16256 2.03512 7.25061 2.08637C7.61363 2.29431 7.97802 2.50226 8.34105 2.70873C8.91132 3.03529 9.48296 3.36038 10.0532 3.68693C10.1779 3.75868 10.3025 3.83483 10.4298 3.90219C10.503 3.94027 10.5544 3.91391 10.6154 3.87876C10.6804 3.84215 10.7454 3.80408 10.8091 3.76747C11.3536 3.45702 11.8968 3.14658 12.4414 2.83467C12.8708 2.58865 13.3083 2.35435 13.7323 2.09809C13.7391 2.0937 13.7458 2.09077 13.7526 2.08637C13.9043 1.99998 13.7675 1.74664 13.6144 1.8345Z" fill="#667085"/>
<path d="M12.0218 0.926447C11.6628 1.13146 11.3025 1.33793 10.9436 1.54295C10.3733 1.8695 9.80299 2.19459 9.23271 2.52114C9.10267 2.59583 8.97128 2.67051 8.84124 2.74519C8.68682 2.83306 8.82363 3.08639 8.97805 2.99853C9.33702 2.79352 9.69733 2.58704 10.0563 2.38203C10.6266 2.05548 11.1969 1.73039 11.7671 1.40383C11.8972 1.32915 12.0286 1.25447 12.1586 1.17978C12.313 1.09192 12.1762 0.838585 12.0218 0.926447Z" fill="#667085"/>
<path d="M7.38375 12.7282C7.02478 12.5232 6.66446 12.3182 6.3055 12.1132C5.73522 11.7881 5.16494 11.4615 4.59466 11.1364C4.46462 11.0617 4.33323 10.9871 4.20319 10.9124C4.22622 10.9548 4.24789 10.9973 4.27092 11.0383C4.27092 10.6297 4.27092 10.2226 4.27092 9.81409C4.27092 9.16245 4.27092 8.51227 4.27092 7.86062C4.27092 7.70979 4.27092 7.56043 4.27092 7.4096C4.20319 7.45206 4.13546 7.49453 4.06773 7.53553C4.42669 7.74054 4.78701 7.94702 5.14598 8.15203C5.71626 8.47859 6.28654 8.80368 6.85681 9.13023C6.98685 9.20491 7.11825 9.2796 7.24829 9.35428C7.22526 9.31181 7.20359 9.26935 7.18056 9.22834C7.18056 9.6369 7.18056 10.044 7.18056 10.4526C7.18056 11.1027 7.18056 11.7544 7.18056 12.4046C7.18056 12.5554 7.18056 12.7048 7.18056 12.8556C7.18056 13.0445 7.45148 13.0445 7.45148 12.8556C7.45148 12.447 7.45148 12.0399 7.45148 11.6314C7.45148 10.9812 7.45148 10.3295 7.45148 9.67937C7.45148 9.52854 7.45148 9.37917 7.45148 9.22834C7.45148 9.17855 7.42574 9.12584 7.38375 9.10241C7.02478 8.8974 6.66446 8.69092 6.3055 8.48591C5.73522 8.15935 5.16494 7.83426 4.59466 7.50771C4.46462 7.43303 4.33323 7.35834 4.20319 7.28366C4.11378 7.23241 4 7.29538 4 7.4096C4 7.81816 4 8.22525 4 8.63381C4 9.28545 4 9.93563 4 10.5873C4 10.7381 4 10.8875 4 11.0383C4 11.0881 4.02574 11.1408 4.06773 11.1642C4.42669 11.3693 4.78701 11.5743 5.14598 11.7793C5.71626 12.1044 6.28654 12.4309 6.85681 12.756C6.98685 12.8307 7.11825 12.9054 7.24829 12.9801C7.40136 13.0694 7.53817 12.816 7.38375 12.7282Z" fill="#667085"/>
<path d="M10.4317 10.9138C10.0713 11.1188 9.71238 11.3239 9.35206 11.5289C8.78178 11.854 8.21015 12.1805 7.63987 12.5056C7.50983 12.5803 7.37843 12.655 7.24839 12.7296C7.31612 12.7721 7.38385 12.8146 7.45158 12.8556C7.45158 12.447 7.45158 12.0399 7.45158 11.6314C7.45158 10.9812 7.45158 10.3295 7.45158 9.67937C7.45158 9.52854 7.45158 9.37917 7.45158 9.22834C7.42855 9.27081 7.40688 9.31328 7.38385 9.35428C7.74417 9.14927 8.10313 8.94279 8.46345 8.73778C9.03373 8.41122 9.60537 8.08613 10.1756 7.75958C10.3057 7.6849 10.4371 7.61021 10.5671 7.53553C10.4994 7.49307 10.4317 7.4506 10.3639 7.4096C10.3639 7.81815 10.3639 8.22671 10.3639 8.63381C10.3639 9.28545 10.3639 9.9371 10.3639 10.5887C10.3639 10.7396 10.3639 10.8904 10.3639 11.0398C10.3639 11.2287 10.6348 11.2287 10.6348 11.0398C10.6348 10.6312 10.6348 10.2226 10.6348 9.81556C10.6348 9.16391 10.6348 8.51227 10.6348 7.86062C10.6348 7.70979 10.6348 7.55896 10.6348 7.4096C10.6348 7.29537 10.5211 7.23241 10.4317 7.28366C10.0713 7.48867 9.71238 7.69515 9.35206 7.90016C8.78178 8.22671 8.21015 8.5518 7.63987 8.87836C7.50983 8.95304 7.37843 9.02772 7.24839 9.10241C7.2064 9.12584 7.18066 9.17855 7.18066 9.22834C7.18066 9.6369 7.18066 10.044 7.18066 10.4526C7.18066 11.1027 7.18066 11.7544 7.18066 12.4046C7.18066 12.5554 7.18066 12.7048 7.18066 12.8556C7.18066 12.9698 7.29445 13.0328 7.38385 12.9815C7.74417 12.7765 8.10313 12.5715 8.46345 12.3665C9.03373 12.0414 9.60537 11.7148 10.1756 11.3898C10.3057 11.3151 10.4371 11.2404 10.5671 11.1657C10.7215 11.0778 10.5847 10.826 10.4317 10.9138Z" fill="#667085"/>
<path d="M10.4308 7.28323C10.0705 7.48824 9.71156 7.69472 9.35124 7.89973C8.78096 8.22629 8.20933 8.55138 7.63905 8.87793C7.50901 8.95261 7.37761 9.0273 7.24757 9.10198C7.29363 9.10198 7.33833 9.10198 7.38439 9.10198C7.02542 8.89697 6.6651 8.69049 6.30614 8.48548C5.73586 8.15893 5.16558 7.83384 4.5953 7.50728C4.46526 7.4326 4.33387 7.35792 4.20383 7.28323C4.20383 7.36817 4.20383 7.45163 4.20383 7.53657C4.56414 7.33156 4.92311 7.12508 5.28343 6.92007C5.85371 6.59352 6.42399 6.26842 6.99427 5.94187C7.12431 5.86719 7.2557 5.79251 7.38574 5.71782C7.33968 5.71782 7.29498 5.71782 7.24893 5.71782C7.60925 5.92283 7.96821 6.12931 8.32853 6.33432C8.89881 6.65941 9.46909 6.98597 10.0394 7.31106C10.1694 7.38574 10.3008 7.46042 10.4308 7.5351C10.5853 7.62297 10.7221 7.3711 10.5677 7.28177C10.2046 7.07383 9.84024 6.86735 9.47721 6.65941C8.90694 6.33286 8.3353 6.00777 7.76502 5.68121C7.6404 5.60946 7.51578 5.53331 7.38845 5.46595C7.3153 5.42788 7.26383 5.45424 7.20423 5.48938C7.13921 5.52599 7.07419 5.56406 7.01052 5.60067C6.46598 5.91112 5.92279 6.22303 5.37825 6.53348C4.94885 6.77949 4.51132 7.01379 4.08733 7.27152C4.08056 7.27591 4.07379 7.27884 4.06701 7.28323C3.97896 7.33302 3.97896 7.48532 4.06701 7.53657C4.43004 7.74451 4.79442 7.95245 5.15745 8.15893C5.72773 8.48548 6.29801 8.81057 6.86964 9.13712C6.99427 9.20888 7.11889 9.28502 7.24622 9.35239C7.31937 9.39046 7.37084 9.3641 7.4318 9.32896C7.49682 9.29235 7.56184 9.25427 7.6255 9.21766C8.17004 8.90722 8.71323 8.59531 9.25777 8.28486C9.68718 8.03885 10.1247 7.80455 10.5487 7.54682C10.5555 7.54243 10.5622 7.5395 10.569 7.5351C10.7207 7.44724 10.5839 7.19391 10.4308 7.28323Z" fill="#667085"/>
<path d="M8.8382 6.37621C8.47924 6.58122 8.11892 6.7877 7.75996 6.99271C7.18968 7.31927 6.6194 7.64436 6.04912 7.97091C5.91908 8.04559 5.78769 8.12028 5.65765 8.19496C5.50322 8.28282 5.64004 8.53616 5.79446 8.44829C6.15342 8.24328 6.51374 8.03681 6.87271 7.83179C7.44298 7.50524 8.01326 7.18015 8.58354 6.8536C8.71358 6.77891 8.84498 6.70423 8.97502 6.62955C9.12944 6.54022 8.99263 6.28688 8.8382 6.37621Z" fill="#667085"/>
<path d="M13.7517 12.7297C13.3914 12.5246 13.0324 12.3196 12.6721 12.1146C12.1018 11.7895 11.5302 11.463 10.9599 11.1379C10.8299 11.0632 10.6985 10.9885 10.5684 10.9138C10.5914 10.9563 10.6131 10.9988 10.6362 11.0398C10.6362 10.6312 10.6362 10.2227 10.6362 9.81556C10.6362 9.16391 10.6362 8.51227 10.6362 7.86062C10.6362 7.70979 10.6362 7.55896 10.6362 7.4096C10.5684 7.45206 10.5007 7.49453 10.433 7.53553C10.7933 7.74054 11.1522 7.94702 11.5126 8.15203C12.0828 8.47859 12.6545 8.80368 13.2248 9.13023C13.3548 9.20491 13.4862 9.2796 13.6162 9.35428C13.5932 9.31181 13.5715 9.26935 13.5485 9.22834C13.5485 9.6369 13.5485 10.044 13.5485 10.4526C13.5485 11.1027 13.5485 11.7544 13.5485 12.4046C13.5485 12.5554 13.5485 12.7048 13.5485 12.8556C13.5485 13.0445 13.8194 13.0445 13.8194 12.8556C13.8194 12.447 13.8194 12.0399 13.8194 11.6314C13.8194 10.9812 13.8194 10.3295 13.8194 9.67937C13.8194 9.52854 13.8194 9.37917 13.8194 9.22834C13.8194 9.17855 13.7937 9.12584 13.7517 9.10241C13.3914 8.8974 13.0324 8.69092 12.6721 8.48591C12.1018 8.15935 11.5302 7.83426 10.9599 7.50771C10.8299 7.43303 10.6985 7.35834 10.5684 7.28366C10.479 7.23241 10.3652 7.29537 10.3652 7.4096C10.3652 7.81815 10.3652 8.22671 10.3652 8.63381C10.3652 9.28545 10.3652 9.9371 10.3652 10.5887C10.3652 10.7396 10.3652 10.8904 10.3652 11.0398C10.3652 11.0896 10.391 11.1423 10.433 11.1657C10.7933 11.3707 11.1522 11.5757 11.5126 11.7807C12.0828 12.1058 12.6545 12.4324 13.2248 12.7575C13.3548 12.8322 13.4862 12.9068 13.6162 12.9815C13.7679 13.0708 13.9061 12.8175 13.7517 12.7297Z" fill="#667085"/>
<path d="M16.7952 10.9138C16.4362 11.1188 16.0759 11.3239 15.7169 11.5289C15.1466 11.854 14.5764 12.1805 14.0061 12.5056C13.876 12.5803 13.7446 12.655 13.6146 12.7296C13.6823 12.7721 13.7501 12.8146 13.8178 12.8556C13.8178 12.447 13.8178 12.0399 13.8178 11.6314C13.8178 10.9812 13.8178 10.3295 13.8178 9.67937C13.8178 9.52854 13.8178 9.37917 13.8178 9.22834C13.7948 9.27081 13.7731 9.31328 13.7501 9.35428C14.109 9.14927 14.4693 8.94279 14.8283 8.73778C15.3986 8.41122 15.9689 8.08613 16.5391 7.75958C16.6692 7.6849 16.8006 7.61021 16.9306 7.53553C16.8629 7.49307 16.7952 7.4506 16.7274 7.4096C16.7274 7.81815 16.7274 8.22525 16.7274 8.63381C16.7274 9.28545 16.7274 9.93563 16.7274 10.5873C16.7274 10.7381 16.7274 10.8875 16.7274 11.0383C16.7274 11.2272 16.9984 11.2272 16.9984 11.0383C16.9984 10.6297 16.9984 10.2226 16.9984 9.81409C16.9984 9.16245 16.9984 8.51227 16.9984 7.86062C16.9984 7.70979 16.9984 7.56043 16.9984 7.4096C16.9984 7.29537 16.8846 7.23241 16.7952 7.28366C16.4362 7.48867 16.0759 7.69515 15.7169 7.90016C15.1466 8.22671 14.5764 8.5518 14.0061 8.87836C13.876 8.95304 13.7446 9.02772 13.6146 9.10241C13.5726 9.12584 13.5469 9.17855 13.5469 9.22834C13.5469 9.6369 13.5469 10.044 13.5469 10.4526C13.5469 11.1027 13.5469 11.7544 13.5469 12.4046C13.5469 12.5554 13.5469 12.7048 13.5469 12.8556C13.5469 12.9698 13.6607 13.0328 13.7501 12.9815C14.109 12.7765 14.4693 12.5715 14.8283 12.3665C15.3986 12.0414 15.9689 11.7148 16.5391 11.3898C16.6692 11.3151 16.8006 11.2404 16.9306 11.1657C17.0864 11.0778 16.9496 10.826 16.7952 10.9138Z" fill="#667085"/>
<path d="M16.7955 7.28567C16.4365 7.49069 16.0762 7.69716 15.7172 7.90217C15.147 8.22873 14.5767 8.55382 14.0064 8.88037C13.8764 8.95506 13.745 9.02974 13.6149 9.10442C13.661 9.10442 13.7057 9.10442 13.7517 9.10442C13.3914 8.89941 13.0324 8.69293 12.6721 8.48792C12.1018 8.16137 11.5302 7.83628 10.9599 7.50972C10.8299 7.43504 10.6985 7.36036 10.5685 7.28567C10.5685 7.37061 10.5685 7.45408 10.5685 7.53901C10.9288 7.334 11.2877 7.12752 11.6481 6.92251C12.2183 6.59742 12.79 6.27087 13.3603 5.94578C13.4903 5.87109 13.6217 5.79641 13.7517 5.72173C13.7057 5.72173 13.661 5.72173 13.6149 5.72173C13.9739 5.92674 14.3342 6.13322 14.6932 6.33823C15.2634 6.66478 15.8337 6.98987 16.404 7.31643C16.534 7.39111 16.6654 7.46579 16.7955 7.54048C16.9499 7.62834 17.0867 7.37647 16.9323 7.28714C16.5693 7.0792 16.2049 6.87126 15.8419 6.66332C15.2716 6.33676 14.7013 6.01167 14.1297 5.68512C14.005 5.61336 13.8804 5.53722 13.7531 5.46986C13.6799 5.43178 13.6285 5.45814 13.5675 5.49329C13.5025 5.5299 13.4375 5.5665 13.3738 5.60458C12.8293 5.91502 12.2861 6.22547 11.7415 6.53592C11.3121 6.78193 10.8746 7.01623 10.4506 7.2725C10.4438 7.27689 10.4371 7.27982 10.4303 7.28421C10.3422 7.334 10.3422 7.48629 10.4303 7.53755C10.7933 7.74549 11.1577 7.95343 11.5207 8.16137C12.091 8.48792 12.6626 8.81448 13.2329 9.13957C13.3575 9.21132 13.4822 9.28747 13.6095 9.35483C13.6826 9.3929 13.7341 9.36654 13.7937 9.3314C13.8587 9.29479 13.9238 9.25672 13.9874 9.22011C14.5306 8.90966 15.0752 8.59921 15.6183 8.2873C16.0477 8.04129 16.4853 7.80699 16.9079 7.55073C16.9147 7.54633 16.9215 7.5434 16.9282 7.53901C17.0867 7.44968 16.9499 7.19635 16.7955 7.28567Z" fill="#667085"/>
<path d="M15.2054 6.37816C14.8464 6.58318 14.4861 6.78965 14.1271 6.99466C13.5569 7.32122 12.9866 7.64631 12.4163 7.97286C12.2863 8.04755 12.1549 8.12223 12.0248 8.19691C11.8704 8.28477 12.0072 8.53811 12.1616 8.45025C12.5206 8.24523 12.8809 8.03876 13.2399 7.83375C13.8102 7.50719 14.3805 7.1821 14.9507 6.85555C15.0808 6.78087 15.2122 6.70618 15.3422 6.6315C15.4966 6.54217 15.3598 6.28884 15.2054 6.37816Z" fill="#667085"/>
</g>
<defs>
<filter id="filter0_dd_7589_16001" x="0" y="0" width="21" height="21" filterUnits="userSpaceOnUse" color-interpolation-filters="sRGB">
<feFlood flood-opacity="0" result="BackgroundImageFix"/>
<feColorMatrix in="SourceAlpha" type="matrix" values="0 0 0 0 0 0 0 0 0 0 0 0 0 0 0 0 0 0 127 0" result="hardAlpha"/>
<feOffset dy="4"/>
<feGaussianBlur stdDeviation="2"/>
<feComposite in2="hardAlpha" operator="out"/>
<feColorMatrix type="matrix" values="0 0 0 0 0 0 0 0 0 0 0 0 0 0 0 0 0 0 0.25 0"/>
<feBlend mode="normal" in2="BackgroundImageFix" result="effect1_dropShadow_7589_16001"/>
<feColorMatrix in="SourceAlpha" type="matrix" values="0 0 0 0 0 0 0 0 0 0 0 0 0 0 0 0 0 0 127 0" result="hardAlpha"/>
<feOffset dy="4"/>
<feGaussianBlur stdDeviation="2"/>
<feComposite in2="hardAlpha" operator="out"/>
<feColorMatrix type="matrix" values="0 0 0 0 0 0 0 0 0 0 0 0 0 0 0 0 0 0 0.25 0"/>
<feBlend mode="normal" in2="effect1_dropShadow_7589_16001" result="effect2_dropShadow_7589_16001"/>
<feBlend mode="normal" in="SourceGraphic" in2="effect2_dropShadow_7589_16001" result="shape"/>
</filter>
</defs>
</svg>
