<svg width="13" height="13" viewBox="0 0 13 13" fill="none" xmlns="http://www.w3.org/2000/svg">
<path d="M6.56674 7.28385C6.20642 7.07884 5.84746 6.87236 5.48714 6.66735C4.91686 6.34226 4.34658 6.0157 3.7763 5.69061C3.64626 5.61593 3.51487 5.54125 3.38483 5.46657C3.40786 5.50903 3.42953 5.5515 3.45256 5.5925C3.45256 5.18394 3.45256 4.77538 3.45256 4.36829C3.45256 3.71664 3.45256 3.065 3.45256 2.41336C3.45256 2.26253 3.45256 2.1117 3.45256 1.96233C3.38483 2.0048 3.3171 2.04726 3.24937 2.08827C3.60969 2.29328 3.96865 2.49975 4.32897 2.70477C4.89925 3.03132 5.46953 3.35641 6.03981 3.68296C6.16985 3.75765 6.30124 3.83233 6.43128 3.90701C6.40826 3.86455 6.38658 3.82208 6.36355 3.78108C6.36355 4.18964 6.36355 4.59819 6.36355 5.00529C6.36355 5.65693 6.36355 6.30858 6.36355 6.95876C6.36355 7.10959 6.36355 7.25895 6.36355 7.40978C6.36355 7.59869 6.63447 7.59869 6.63447 7.40978C6.63447 7.00122 6.63447 6.59267 6.63447 6.18557C6.63447 5.53393 6.63447 4.88228 6.63447 4.2321C6.63447 4.08127 6.63447 3.93191 6.63447 3.78108C6.63447 3.73129 6.60873 3.67857 6.56674 3.65514C6.20642 3.45013 5.84746 3.24365 5.48714 3.03864C4.91686 2.71209 4.34658 2.387 3.7763 2.06044C3.64626 1.98576 3.51487 1.91108 3.38483 1.83639C3.29543 1.78514 3.18164 1.84811 3.18164 1.96233C3.18164 2.37089 3.18164 2.77945 3.18164 3.18654C3.18164 3.83819 3.18164 4.48983 3.18164 5.14148C3.18164 5.29231 3.18164 5.44314 3.18164 5.5925C3.18164 5.64229 3.20738 5.69501 3.24937 5.71844C3.60969 5.92345 3.96865 6.12993 4.32897 6.33494C4.89925 6.66003 5.46953 6.98658 6.03981 7.31167C6.16985 7.38635 6.30124 7.46104 6.43128 7.53572C6.58435 7.62358 6.72116 7.37171 6.56674 7.28385Z" fill="#667085"/>
<path d="M9.61428 5.46657C9.25396 5.67158 8.895 5.87805 8.53468 6.08307C7.9644 6.40816 7.39276 6.73471 6.82249 7.0598C6.69245 7.13448 6.56105 7.20917 6.43101 7.28385C6.49874 7.32631 6.56647 7.36878 6.6342 7.40978C6.6342 7.00122 6.6342 6.59267 6.6342 6.18557C6.6342 5.53393 6.6342 4.88228 6.6342 4.2321C6.6342 4.08127 6.6342 3.93191 6.6342 3.78108C6.61117 3.82354 6.5895 3.86601 6.56647 3.90701C6.92679 3.702 7.28575 3.49552 7.64607 3.29051C8.21635 2.96396 8.78798 2.63887 9.35826 2.31231C9.4883 2.23763 9.6197 2.16295 9.74974 2.08827C9.68201 2.0458 9.61428 2.00333 9.54655 1.96233C9.54655 2.37089 9.54655 2.77945 9.54655 3.18654C9.54655 3.83819 9.54655 4.48983 9.54655 5.14148C9.54655 5.29231 9.54655 5.44314 9.54655 5.5925C9.54655 5.78141 9.81747 5.78141 9.81747 5.5925C9.81747 5.18394 9.81747 4.77538 9.81747 4.36829C9.81747 3.71664 9.81747 3.065 9.81747 2.41336C9.81747 2.26253 9.81747 2.1117 9.81747 1.96233C9.81747 1.84811 9.70368 1.78514 9.61428 1.83639C9.25396 2.04141 8.895 2.24788 8.53468 2.45289C7.9644 2.77945 7.39276 3.10454 6.82249 3.43109C6.69245 3.50578 6.56105 3.58046 6.43101 3.65514C6.38902 3.67857 6.36328 3.73129 6.36328 3.78108C6.36328 4.18964 6.36328 4.59819 6.36328 5.00529C6.36328 5.65693 6.36328 6.30858 6.36328 6.95876C6.36328 7.10959 6.36328 7.25895 6.36328 7.40978C6.36328 7.524 6.47707 7.58697 6.56647 7.53572C6.92679 7.33071 7.28575 7.12423 7.64607 6.91922C8.21635 6.59413 8.78798 6.26758 9.35826 5.94249C9.4883 5.8678 9.6197 5.79312 9.74974 5.71844C9.90416 5.63058 9.76735 5.37724 9.61428 5.46657Z" fill="#667085"/>
<path d="M9.61443 1.8345C9.25412 2.03951 8.89515 2.24599 8.53483 2.451C7.96455 2.77756 7.39292 3.10265 6.82264 3.4292C6.6926 3.50388 6.56121 3.57857 6.43117 3.65325C6.47722 3.65325 6.52192 3.65325 6.56798 3.65325C6.20766 3.44824 5.8487 3.24176 5.48838 3.03675C4.9181 2.7102 4.34782 2.38511 3.77754 2.05855C3.6475 1.98387 3.5161 1.90919 3.38606 1.8345C3.38606 1.91944 3.38606 2.00291 3.38606 2.08784C3.74638 1.88283 4.10535 1.67782 4.46567 1.47134C5.03595 1.14625 5.60623 0.819695 6.1765 0.494605C6.30654 0.419922 6.43794 0.345239 6.56798 0.270556C6.52192 0.270556 6.47722 0.270556 6.43117 0.270556C6.79148 0.475568 7.15045 0.68058 7.51077 0.887056C8.08105 1.21215 8.65268 1.5387 9.22296 1.86379C9.353 1.93847 9.48439 2.01316 9.61443 2.08784C9.76886 2.1757 9.90567 1.92236 9.75125 1.8345C9.38822 1.62656 9.02384 1.42009 8.66081 1.21215C8.09053 0.885592 7.5189 0.560502 6.94862 0.233947C6.82399 0.162193 6.69937 0.086046 6.57204 0.018685C6.4989 -0.0193886 6.44742 0.00697003 6.38782 0.0421149C6.3228 0.0787241 6.25778 0.115333 6.19411 0.153407C5.64957 0.463853 5.10638 0.7743 4.56184 1.08475C4.13244 1.33076 3.69491 1.56506 3.27092 1.82132C3.26415 1.82572 3.25738 1.82865 3.25061 1.83304C3.16256 1.88283 3.16256 2.03512 3.25061 2.08637C3.61363 2.29431 3.97802 2.50226 4.34105 2.70873C4.91132 3.03529 5.48296 3.36038 6.05324 3.68693C6.17786 3.75868 6.30248 3.83483 6.42981 3.90219C6.50296 3.94027 6.55443 3.91391 6.61539 3.87876C6.68041 3.84215 6.74543 3.80408 6.80909 3.76747C7.35364 3.45702 7.89682 3.14658 8.44137 2.83467C8.87077 2.58865 9.3083 2.35435 9.73228 2.09809C9.73906 2.0937 9.74583 2.09077 9.7526 2.08637C9.90432 1.99998 9.7675 1.74664 9.61443 1.8345Z" fill="#667085"/>
<path d="M8.0218 0.926447C7.66283 1.13146 7.30252 1.33793 6.94355 1.54295C6.37327 1.8695 5.80299 2.19459 5.23271 2.52114C5.10267 2.59583 4.97128 2.67051 4.84124 2.74519C4.68682 2.83306 4.82363 3.08639 4.97805 2.99853C5.33702 2.79352 5.69733 2.58704 6.0563 2.38203C6.62658 2.05548 7.19686 1.73039 7.76714 1.40383C7.89718 1.32915 8.02857 1.25447 8.15861 1.17978C8.31303 1.09192 8.17622 0.838585 8.0218 0.926447Z" fill="#667085"/>
<path d="M3.38375 12.7282C3.02478 12.5232 2.66446 12.3182 2.3055 12.1132C1.73522 11.7881 1.16494 11.4615 0.594662 11.1364C0.464622 11.0617 0.333227 10.9871 0.203187 10.9124C0.226215 10.9548 0.247889 10.9973 0.270917 11.0383C0.270917 10.6297 0.270917 10.2226 0.270917 9.81409C0.270917 9.16245 0.270917 8.51227 0.270917 7.86062C0.270917 7.70979 0.270917 7.56043 0.270917 7.4096C0.203187 7.45206 0.135458 7.49453 0.0677291 7.53553C0.426694 7.74054 0.787013 7.94702 1.14598 8.15203C1.71626 8.47859 2.28654 8.80368 2.85681 9.13023C2.98685 9.20491 3.11825 9.2796 3.24829 9.35428C3.22526 9.31181 3.20359 9.26935 3.18056 9.22834C3.18056 9.6369 3.18056 10.044 3.18056 10.4526C3.18056 11.1027 3.18056 11.7544 3.18056 12.4046C3.18056 12.5554 3.18056 12.7048 3.18056 12.8556C3.18056 13.0445 3.45148 13.0445 3.45148 12.8556C3.45148 12.447 3.45148 12.0399 3.45148 11.6314C3.45148 10.9812 3.45148 10.3295 3.45148 9.67937C3.45148 9.52854 3.45148 9.37917 3.45148 9.22834C3.45148 9.17855 3.42574 9.12584 3.38375 9.10241C3.02478 8.8974 2.66446 8.69092 2.3055 8.48591C1.73522 8.15935 1.16494 7.83426 0.594662 7.50771C0.464622 7.43303 0.333227 7.35834 0.203187 7.28366C0.113785 7.23241 0 7.29538 0 7.4096C0 7.81816 0 8.22525 0 8.63381C0 9.28545 0 9.93563 0 10.5873C0 10.7381 0 10.8875 0 11.0383C0 11.0881 0.0257371 11.1408 0.0677291 11.1642C0.426694 11.3693 0.787013 11.5743 1.14598 11.7793C1.71626 12.1044 2.28654 12.4309 2.85681 12.756C2.98685 12.8307 3.11825 12.9054 3.24829 12.9801C3.40136 13.0694 3.53817 12.816 3.38375 12.7282Z" fill="#667085"/>
<path d="M6.43166 10.9138C6.07134 11.1188 5.71238 11.3239 5.35206 11.5289C4.78178 11.854 4.21015 12.1805 3.63987 12.5056C3.50983 12.5803 3.37843 12.655 3.24839 12.7296C3.31612 12.7721 3.38385 12.8146 3.45158 12.8556C3.45158 12.447 3.45158 12.0399 3.45158 11.6314C3.45158 10.9812 3.45158 10.3295 3.45158 9.67937C3.45158 9.52854 3.45158 9.37917 3.45158 9.22834C3.42855 9.27081 3.40688 9.31328 3.38385 9.35428C3.74417 9.14927 4.10313 8.94279 4.46345 8.73778C5.03373 8.41122 5.60537 8.08613 6.17565 7.75958C6.30569 7.6849 6.43708 7.61021 6.56712 7.53553C6.49939 7.49307 6.43166 7.4506 6.36393 7.4096C6.36393 7.81815 6.36393 8.22671 6.36393 8.63381C6.36393 9.28545 6.36393 9.9371 6.36393 10.5887C6.36393 10.7396 6.36393 10.8904 6.36393 11.0398C6.36393 11.2287 6.63485 11.2287 6.63485 11.0398C6.63485 10.6312 6.63485 10.2226 6.63485 9.81556C6.63485 9.16391 6.63485 8.51227 6.63485 7.86062C6.63485 7.70979 6.63485 7.55896 6.63485 7.4096C6.63485 7.29537 6.52106 7.23241 6.43166 7.28366C6.07134 7.48867 5.71238 7.69515 5.35206 7.90016C4.78178 8.22671 4.21015 8.5518 3.63987 8.87836C3.50983 8.95304 3.37843 9.02772 3.24839 9.10241C3.2064 9.12584 3.18066 9.17855 3.18066 9.22834C3.18066 9.6369 3.18066 10.044 3.18066 10.4526C3.18066 11.1027 3.18066 11.7544 3.18066 12.4046C3.18066 12.5554 3.18066 12.7048 3.18066 12.8556C3.18066 12.9698 3.29445 13.0328 3.38385 12.9815C3.74417 12.7765 4.10313 12.5715 4.46345 12.3665C5.03373 12.0414 5.60537 11.7148 6.17565 11.3898C6.30569 11.3151 6.43708 11.2404 6.56712 11.1657C6.72154 11.0778 6.58473 10.826 6.43166 10.9138Z" fill="#667085"/>
<path d="M6.43084 7.28323C6.07052 7.48824 5.71156 7.69472 5.35124 7.89973C4.78096 8.22629 4.20933 8.55138 3.63905 8.87793C3.50901 8.95261 3.37761 9.0273 3.24757 9.10198C3.29363 9.10198 3.33833 9.10198 3.38439 9.10198C3.02542 8.89697 2.6651 8.69049 2.30614 8.48548C1.73586 8.15893 1.16558 7.83384 0.5953 7.50728C0.46526 7.4326 0.333865 7.35792 0.203825 7.28323C0.203825 7.36817 0.203825 7.45163 0.203825 7.53657C0.564144 7.33156 0.923109 7.12508 1.28343 6.92007C1.85371 6.59352 2.42399 6.26842 2.99427 5.94187C3.12431 5.86719 3.2557 5.79251 3.38574 5.71782C3.33968 5.71782 3.29498 5.71782 3.24893 5.71782C3.60925 5.92283 3.96821 6.12931 4.32853 6.33432C4.89881 6.65941 5.46909 6.98597 6.03937 7.31106C6.16941 7.38574 6.3008 7.46042 6.43084 7.5351C6.58526 7.62297 6.72208 7.3711 6.56765 7.28177C6.20463 7.07383 5.84024 6.86735 5.47721 6.65941C4.90694 6.33286 4.3353 6.00777 3.76502 5.68121C3.6404 5.60946 3.51578 5.53331 3.38845 5.46595C3.3153 5.42788 3.26383 5.45424 3.20423 5.48938C3.13921 5.52599 3.07419 5.56406 3.01052 5.60067C2.46598 5.91112 1.92279 6.22303 1.37825 6.53348C0.948846 6.77949 0.511316 7.01379 0.0873312 7.27152C0.0805583 7.27591 0.0737854 7.27884 0.0670125 7.28323C-0.0210354 7.33302 -0.0210354 7.48532 0.0670125 7.53657C0.430041 7.74451 0.794423 7.95245 1.15745 8.15893C1.72773 8.48548 2.29801 8.81057 2.86964 9.13712C2.99427 9.20888 3.11889 9.28502 3.24622 9.35239C3.31937 9.39046 3.37084 9.3641 3.4318 9.32896C3.49682 9.29235 3.56184 9.25427 3.6255 9.21766C4.17004 8.90722 4.71323 8.59531 5.25777 8.28486C5.68718 8.03885 6.12471 7.80455 6.54869 7.54682C6.55546 7.54243 6.56224 7.5395 6.56901 7.5351C6.72072 7.44724 6.58391 7.19391 6.43084 7.28323Z" fill="#667085"/>
<path d="M4.8382 6.37621C4.47924 6.58122 4.11892 6.7877 3.75996 6.99271C3.18968 7.31927 2.6194 7.64436 2.04912 7.97091C1.91908 8.04559 1.78769 8.12028 1.65765 8.19496C1.50322 8.28282 1.64004 8.53616 1.79446 8.44829C2.15342 8.24328 2.51374 8.03681 2.87271 7.83179C3.44298 7.50524 4.01326 7.18015 4.58354 6.8536C4.71358 6.77891 4.84498 6.70423 4.97502 6.62955C5.12944 6.54022 4.99263 6.28688 4.8382 6.37621Z" fill="#667085"/>
<path d="M9.75169 12.7297C9.39137 12.5246 9.03241 12.3196 8.67209 12.1146C8.10181 11.7895 7.53018 11.463 6.9599 11.1379C6.82986 11.0632 6.69846 10.9885 6.56842 10.9138C6.59145 10.9563 6.61312 10.9988 6.63615 11.0398C6.63615 10.6312 6.63615 10.2227 6.63615 9.81556C6.63615 9.16391 6.63615 8.51227 6.63615 7.86062C6.63615 7.70979 6.63615 7.55896 6.63615 7.4096C6.56842 7.45206 6.50069 7.49453 6.43296 7.53553C6.79328 7.74054 7.15225 7.94702 7.51257 8.15203C8.08284 8.47859 8.65448 8.80368 9.22476 9.13023C9.3548 9.20491 9.48619 9.2796 9.61623 9.35428C9.5932 9.31181 9.57153 9.26935 9.5485 9.22834C9.5485 9.6369 9.5485 10.044 9.5485 10.4526C9.5485 11.1027 9.5485 11.7544 9.5485 12.4046C9.5485 12.5554 9.5485 12.7048 9.5485 12.8556C9.5485 13.0445 9.81942 13.0445 9.81942 12.8556C9.81942 12.447 9.81942 12.0399 9.81942 11.6314C9.81942 10.9812 9.81942 10.3295 9.81942 9.67937C9.81942 9.52854 9.81942 9.37917 9.81942 9.22834C9.81942 9.17855 9.79368 9.12584 9.75169 9.10241C9.39137 8.8974 9.03241 8.69092 8.67209 8.48591C8.10181 8.15935 7.53018 7.83426 6.9599 7.50771C6.82986 7.43303 6.69846 7.35834 6.56842 7.28366C6.47902 7.23241 6.36523 7.29537 6.36523 7.4096C6.36523 7.81815 6.36523 8.22671 6.36523 8.63381C6.36523 9.28545 6.36523 9.9371 6.36523 10.5887C6.36523 10.7396 6.36523 10.8904 6.36523 11.0398C6.36523 11.0896 6.39097 11.1423 6.43296 11.1657C6.79328 11.3707 7.15225 11.5757 7.51257 11.7807C8.08284 12.1058 8.65448 12.4324 9.22476 12.7575C9.3548 12.8322 9.48619 12.9068 9.61623 12.9815C9.76794 13.0708 9.90611 12.8175 9.75169 12.7297Z" fill="#667085"/>
<path d="M12.7952 10.9138C12.4362 11.1188 12.0759 11.3239 11.7169 11.5289C11.1466 11.854 10.5764 12.1805 10.0061 12.5056C9.87604 12.5803 9.74464 12.655 9.6146 12.7296C9.68233 12.7721 9.75006 12.8146 9.81779 12.8556C9.81779 12.447 9.81779 12.0399 9.81779 11.6314C9.81779 10.9812 9.81779 10.3295 9.81779 9.67937C9.81779 9.52854 9.81779 9.37917 9.81779 9.22834C9.79476 9.27081 9.77309 9.31328 9.75006 9.35428C10.109 9.14927 10.4693 8.94279 10.8283 8.73778C11.3986 8.41122 11.9689 8.08613 12.5391 7.75958C12.6692 7.6849 12.8006 7.61021 12.9306 7.53553C12.8629 7.49307 12.7952 7.4506 12.7274 7.4096C12.7274 7.81815 12.7274 8.22525 12.7274 8.63381C12.7274 9.28545 12.7274 9.93563 12.7274 10.5873C12.7274 10.7381 12.7274 10.8875 12.7274 11.0383C12.7274 11.2272 12.9984 11.2272 12.9984 11.0383C12.9984 10.6297 12.9984 10.2226 12.9984 9.81409C12.9984 9.16245 12.9984 8.51227 12.9984 7.86062C12.9984 7.70979 12.9984 7.56043 12.9984 7.4096C12.9984 7.29537 12.8846 7.23241 12.7952 7.28366C12.4362 7.48867 12.0759 7.69515 11.7169 7.90016C11.1466 8.22671 10.5764 8.5518 10.0061 8.87836C9.87604 8.95304 9.74464 9.02772 9.6146 9.10241C9.57261 9.12584 9.54688 9.17855 9.54688 9.22834C9.54688 9.6369 9.54688 10.044 9.54688 10.4526C9.54688 11.1027 9.54688 11.7544 9.54688 12.4046C9.54688 12.5554 9.54688 12.7048 9.54688 12.8556C9.54688 12.9698 9.66066 13.0328 9.75006 12.9815C10.109 12.7765 10.4693 12.5715 10.8283 12.3665C11.3986 12.0414 11.9689 11.7148 12.5391 11.3898C12.6692 11.3151 12.8006 11.2404 12.9306 11.1657C13.0864 11.0778 12.9496 10.826 12.7952 10.9138Z" fill="#667085"/>
<path d="M12.7955 7.28567C12.4365 7.49069 12.0762 7.69716 11.7172 7.90217C11.147 8.22873 10.5767 8.55382 10.0064 8.88037C9.87635 8.95506 9.74496 9.02974 9.61492 9.10442C9.66097 9.10442 9.70567 9.10442 9.75173 9.10442C9.39141 8.89941 9.03245 8.69293 8.67213 8.48792C8.10185 8.16137 7.53021 7.83628 6.95994 7.50972C6.8299 7.43504 6.6985 7.36036 6.56846 7.28567C6.56846 7.37061 6.56846 7.45408 6.56846 7.53901C6.92878 7.334 7.28774 7.12752 7.64806 6.92251C8.21834 6.59742 8.78998 6.27087 9.36026 5.94578C9.4903 5.87109 9.62169 5.79641 9.75173 5.72173C9.70567 5.72173 9.66097 5.72173 9.61492 5.72173C9.97388 5.92674 10.3342 6.13322 10.6932 6.33823C11.2634 6.66478 11.8337 6.98987 12.404 7.31643C12.534 7.39111 12.6654 7.46579 12.7955 7.54048C12.9499 7.62834 13.0867 7.37647 12.9323 7.28714C12.5693 7.0792 12.2049 6.87126 11.8419 6.66332C11.2716 6.33676 10.7013 6.01167 10.1297 5.68512C10.005 5.61336 9.88042 5.53722 9.75309 5.46986C9.67994 5.43178 9.62846 5.45814 9.56751 5.49329C9.50249 5.5299 9.43747 5.5665 9.3738 5.60458C8.82926 5.91502 8.28607 6.22547 7.74153 6.53592C7.31213 6.78193 6.8746 7.01623 6.45061 7.2725C6.44384 7.27689 6.43707 7.27982 6.43029 7.28421C6.34225 7.334 6.34225 7.48629 6.43029 7.53755C6.79332 7.74549 7.15771 7.95343 7.52073 8.16137C8.09101 8.48792 8.66265 8.81448 9.23292 9.13957C9.35755 9.21132 9.48217 9.28747 9.6095 9.35483C9.68265 9.3929 9.73412 9.36654 9.79372 9.3314C9.85874 9.29479 9.92376 9.25672 9.98743 9.22011C10.5306 8.90966 11.0752 8.59921 11.6183 8.2873C12.0477 8.04129 12.4853 7.80699 12.9079 7.55073C12.9147 7.54633 12.9215 7.5434 12.9282 7.53901C13.0867 7.44968 12.9499 7.19635 12.7955 7.28567Z" fill="#667085"/>
<path d="M11.2054 6.37816C10.8464 6.58318 10.4861 6.78965 10.1271 6.99466C9.55687 7.32122 8.98659 7.64631 8.41631 7.97286C8.28627 8.04755 8.15487 8.12223 8.02483 8.19691C7.87041 8.28477 8.00722 8.53811 8.16165 8.45025C8.52061 8.24523 8.88093 8.03876 9.23989 7.83375C9.81017 7.50719 10.3805 7.1821 10.9507 6.85555C11.0808 6.78087 11.2122 6.70618 11.3422 6.6315C11.4966 6.54217 11.3598 6.28884 11.2054 6.37816Z" fill="#667085"/>
</svg>
